<?xml version="1.0" encoding="UTF-8" standalone="no"?>
<!DOCTYPE svg PUBLIC "-//W3C//DTD SVG 1.1//EN" "http://www.w3.org/Graphics/SVG/1.1/DTD/svg11.dtd">
<svg width="100%" height="100%" viewBox="0 0 16 16" version="1.1" xmlns="http://www.w3.org/2000/svg" xmlns:xlink="http://www.w3.org/1999/xlink" xml:space="preserve" xmlns:serif="http://www.serif.com/" style="fill-rule:evenodd;clip-rule:evenodd;stroke-linejoin:round;stroke-miterlimit:2;">
    <g transform="matrix(0.84478,0,0,0.84478,1.24176,1.24176)">
        <path d="M9.293,0L4,0C2.903,0 2,0.903 2,2L2,14C2,15.097 2.903,16 4,16L12,16C13.097,16 14,15.097 14,14L14,4.707C14,4.442 13.894,4.187 13.707,4L10,0.293C9.813,0.106 9.558,0 9.293,-0ZM9.5,3.5L9.5,1.5L12.5,4.5L10.5,4.5C9.951,4.5 9.5,4.049 9.5,3.5ZM8.5,7.5L8.5,11.293L9.646,10.146C9.74,10.052 9.867,9.999 10,9.999C10.275,9.999 10.501,10.225 10.501,10.5C10.501,10.633 10.448,10.76 10.354,10.854L8.354,12.854C8.26,12.948 8.133,13.001 8,13.001C7.867,13.001 7.74,12.948 7.646,12.854L5.646,10.854C5.552,10.76 5.499,10.633 5.499,10.5C5.499,10.225 5.725,9.999 6,9.999C6.133,9.999 6.26,10.052 6.354,10.146L7.5,11.293L7.5,7.5C7.5,7.226 7.726,7 8,7C8.274,7 8.5,7.226 8.5,7.5Z" style="fill:rgb(119,144,164);fill-rule:nonzero;"/>
    </g>
</svg>
